<?xml version="1.0" encoding="utf-8"?>
<!-- Generator: Adobe Illustrator 19.0.0, SVG Export Plug-In . SVG Version: 6.00 Build 0)  -->
<svg version="1.1" id="Layer_1" xmlns="http://www.w3.org/2000/svg" xmlns:xlink="http://www.w3.org/1999/xlink" x="0px" y="0px"
	 viewBox="0 0 1634 916" style="enable-background:new 0 0 1634 916;" xml:space="preserve">
<style type="text/css">
	.st0{opacity:0.43;clip-path:url(#SVGID_2_);}
	.st1{clip-path:url(#SVGID_4_);fill:none;stroke:#FFFFFF;stroke-width:2.765;stroke-miterlimit:10;}
	.st2{clip-path:url(#SVGID_6_);fill:none;stroke:#FFFFFF;stroke-width:4.142;stroke-miterlimit:10;}
	.st3{clip-path:url(#SVGID_8_);fill:none;stroke:#FFFFFF;stroke-width:4.142;stroke-miterlimit:10;}
	.st4{clip-path:url(#SVGID_10_);fill:none;stroke:#FFFFFF;stroke-width:2.765;stroke-miterlimit:10;}
	.st5{clip-path:url(#SVGID_12_);fill:none;stroke:#FFFFFF;stroke-width:2.765;stroke-miterlimit:10;}
</style>
<g>
	<defs>
		<rect id="SVGID_1_" width="1634" height="916"/>
	</defs>
	<clipPath id="SVGID_2_">
		<use xlink:href="#SVGID_1_"  style="overflow:visible;"/>
	</clipPath>
	<g class="st0">
		<g>
			<defs>
				<rect id="SVGID_3_" x="300.5" y="-7.4" width="404.5" height="293.7"/>
			</defs>
			<clipPath id="SVGID_4_">
				<use xlink:href="#SVGID_3_"  style="overflow:visible;"/>
			</clipPath>
			<path class="st1" d="M534.8,236.4c3.7,4.6,7.9,8.9,12.5,12.9c39.8,34,99.6,29.3,133.5-10.5c34-39.8,29.3-99.6-10.5-133.5
				c-22.6-19.3-51.7-26.1-78.8-21.1c-7.2-22.1-20.4-42.6-39.4-58.8c-54.8-46.8-137.2-40.3-184,14.5c-23.9,27.9-33.9,63-30.7,96.9
				c-5.9,4-11.3,8.8-16.2,14.5c-29.1,34.1-25.1,85.3,9,114.3s85.3,25.1,114.3-9c0.8-1,1.7-2,2.4-3
				C477.1,258.2,508.3,252.4,534.8,236.4z"/>
		</g>
	</g>
	<g class="st0">
		<g>
			<defs>
				<rect id="SVGID_5_" x="1202.3" y="394.9" width="606" height="440"/>
			</defs>
			<clipPath id="SVGID_6_">
				<use xlink:href="#SVGID_5_"  style="overflow:visible;"/>
			</clipPath>
			<path class="st2" d="M1553.4,760c5.5,6.9,11.8,13.4,18.7,19.3c59.6,50.9,149.2,43.9,200.1-15.7c50.9-59.6,43.9-149.2-15.7-200.1
				c-33.9-28.9-77.5-39.1-118.1-31.6c-10.8-33.2-30.5-63.8-59-88.1c-82.1-70.1-205.6-60.4-275.7,21.7c-35.7,41.8-50.7,94.4-46,145.2
				c-8.8,6-17,13.2-24.2,21.7c-43.6,51-37.6,127.7,13.5,171.3c51,43.6,127.7,37.6,171.3-13.5c1.3-1.5,2.5-3,3.7-4.5
				C1466.9,792.8,1513.7,784,1553.4,760z"/>
		</g>
	</g>
	<g class="st0">
		<g>
			<defs>
				<rect id="SVGID_7_" x="-305.6" y="349.2" width="606" height="440"/>
			</defs>
			<clipPath id="SVGID_8_">
				<use xlink:href="#SVGID_7_"  style="overflow:visible;"/>
			</clipPath>
			<path class="st3" d="M-50.7,424.1c-5.5-6.9-11.8-13.4-18.7-19.3c-59.6-50.9-149.2-43.9-200.1,15.7
				c-50.9,59.6-43.9,149.2,15.7,200.1c33.9,28.9,77.5,39.1,118.1,31.6c10.8,33.2,30.5,63.8,59,88.1c82.1,70.2,205.6,60.4,275.7-21.7
				c35.7-41.8,50.7-94.4,46-145.2c8.8-6,17-13.2,24.2-21.7c43.6-51,37.6-127.7-13.5-171.3c-51-43.6-127.7-37.6-171.3,13.5
				c-1.3,1.5-2.5,3-3.7,4.5C35.8,391.3-11,400.1-50.7,424.1z"/>
		</g>
	</g>
	<g class="st0">
		<g>
			<defs>
				<rect id="SVGID_9_" x="986" y="82.5" width="258.7" height="239.5"/>
			</defs>
			<clipPath id="SVGID_10_">
				<use xlink:href="#SVGID_9_"  style="overflow:visible;"/>
			</clipPath>
			<path class="st4" d="M1141.2,84.2c-43,3.4-77.1,35-85.4,75.2c-41.5,6.5-71.5,43.9-68.2,86.5c3.5,44.7,42.6,78,87.2,74.5
				c30.5-2.4,55.6-21.3,67.5-47.3c4.5,0.3,9.1,0.3,13.7-0.1c52.2-4.1,91.1-49.7,87-101.9C1239,119,1193.4,80.1,1141.2,84.2z"/>
		</g>
	</g>
	<g class="st0">
		<g>
			<defs>
				<rect id="SVGID_11_" x="391.2" y="785.8" width="258.7" height="239.5"/>
			</defs>
			<clipPath id="SVGID_12_">
				<use xlink:href="#SVGID_11_"  style="overflow:visible;"/>
			</clipPath>
			<path class="st5" d="M546.4,787.5c-43,3.4-77.1,35-85.4,75.2c-41.5,6.5-71.5,43.9-68.2,86.5c3.5,44.7,42.6,78,87.2,74.5
				c30.5-2.4,55.6-21.3,67.5-47.3c4.5,0.3,9.1,0.3,13.7-0.1c52.2-4.1,91.1-49.7,87-101.9C644.2,822.3,598.5,783.4,546.4,787.5z"/>
		</g>
	</g>
</g>
</svg>
