<svg id="Capa_1" data-name="Capa 1" xmlns="http://www.w3.org/2000/svg" viewBox="0 0 227.43 39.39"><defs><style>.cls-1{fill:#fff;}</style></defs><title>school it blanco</title><path class="cls-1" d="M0,32.94l5.12-4.76a11,11,0,0,0,9.93,4.42,9.2,9.2,0,0,0,3.49-1,3.39,3.39,0,0,0,.52-5.71A15.77,15.77,0,0,0,15.33,24c-2.58-1-5.28-1.81-7.82-2.95C2.76,18.87.73,15,1.7,10.2A9.33,9.33,0,0,1,6.22,4C12,.38,21,1.28,25.88,5.94c.58.56,1.08,1.2,1.56,1.73L22.7,12.52a9.69,9.69,0,0,0-6.31-3.84,16.1,16.1,0,0,0-4.94.24A2.91,2.91,0,0,0,9,11.65a2.94,2.94,0,0,0,1.84,3.15c2,.91,4.06,1.64,6.1,2.44,1.59.62,3.23,1.14,4.77,1.87,3.52,1.67,5.9,4.25,6.08,8.37.19,4.41-1.64,7.88-5.55,9.8a18.25,18.25,0,0,1-19-1.17A24.57,24.57,0,0,1,0,32.94Z"/><path class="cls-1" d="M67.4,38.43H60.6V0h6.79V14.19c2.82-3.09,6.15-3.75,9.78-3.11,4.14.74,7,3.83,7.71,8.22a16.8,16.8,0,0,1,.24,2.44c0,5.33,0,10.65,0,16,0,.21,0,.43,0,.7H78.37c0-.43-.05-.85-.05-1.28,0-5,0-10-.14-15a5,5,0,0,0-5-4.88,5,5,0,0,0-5.55,4.11A12.09,12.09,0,0,0,67.41,24c0,4.39,0,8.79,0,13.18Z"/><path class="cls-1" d="M104.61,39.26a14,14,0,0,1-14-14.16A14,14,0,1,1,118.58,25,14.06,14.06,0,0,1,104.61,39.26Zm7.07-14.38c0-.2,0-.53,0-.86a7.2,7.2,0,0,0-6.49-6.7,7,7,0,0,0-7.27,5.2,10.94,10.94,0,0,0-.29,3.74,7.11,7.11,0,0,0,8.52,6.4C109.37,32,111.69,28.83,111.68,24.88Z"/><path class="cls-1" d="M136.47,39.26a14,14,0,0,1-14-14.19,14,14,0,1,1,27.94.05A14.07,14.07,0,0,1,136.47,39.26Zm-7.09-14c0,.22,0,.59.06,1A7.27,7.27,0,0,0,136,32.8a6.89,6.89,0,0,0,7.2-5.27,11,11,0,0,0,.28-3.53A7,7,0,0,0,135,17.47C131.71,18.13,129.38,21.26,129.38,25.21Z"/><path class="cls-1" d="M213.62,17.72h-7.14V21c0,2.64,0,5.29,0,7.93,0,1.41.09,2.85,1.57,3.55a3.94,3.94,0,0,0,4.28-.68l.38-.24,3.08,5.09c-.75.49-1.44,1-2.21,1.44a11.07,11.07,0,0,1-7.28,1c-3.94-.74-6.48-3.77-6.67-8.11-.16-3.94-.08-7.89-.11-11.84V17.7h-4.63v-6h4.65V4.8h6.86v6.84h7.22Z"/><path class="cls-1" d="M52.5,30.25l3.4,4.93c-3.58,4.23-13.36,6.38-19.79.36A14.38,14.38,0,0,1,35.66,15c5.39-5.46,15.27-5.55,20.47-.09l-3.86,4.82a9.07,9.07,0,0,0-8.18-2.23A6.8,6.8,0,0,0,40,20.18a8.41,8.41,0,0,0,.64,10.49C43.08,33.28,48.35,33.91,52.5,30.25Z"/><path class="cls-1" d="M156.27,0H163V38.43h-6.68Z"/><path class="cls-1" d="M189.71,38.48h-6.33a4.62,4.62,0,0,1-.57-.07V2.61h6.9Z"/><path class="cls-1" d="M223.52,31.47a3.91,3.91,0,0,1,3.91,4,3.86,3.86,0,0,1-3.92,3.83,3.9,3.9,0,0,1,0-7.79Z"/></svg>